<?xml version="1.0" encoding="utf-8"?>
<!-- Generator: Adobe Illustrator 27.2.0, SVG Export Plug-In . SVG Version: 6.00 Build 0)  -->
<svg version="1.1" id="Layer_1" xmlns="http://www.w3.org/2000/svg" xmlns:xlink="http://www.w3.org/1999/xlink" x="0px" y="0px"
	 viewBox="0 0 586.29 596.79" style="enable-background:new 0 0 586.29 596.79;" xml:space="preserve">
<style type="text/css">
	.st0{fill:none;stroke:#FFFFFF;}
	.st1{fill:#654675;stroke:#FFFFFF;stroke-miterlimit:10;}
	.st2{fill:#755984;stroke:#FFFFFF;stroke-miterlimit:10;}
	.st3{fill:#7B6089;stroke:#FFFFFF;stroke-miterlimit:10;}
	.st4{fill:#D7CCDE;stroke:#FFFFFF;stroke-miterlimit:10;}
	.st5{fill:#E2D9E8;stroke:#FFFFFF;stroke-miterlimit:10;}
	.st6{fill:none;}
	.st7{fill:#3A3C3E;}
	.st8{font-family:'Helvetica-Bold';}
	.st9{font-size:8.6192px;}
	.st10{fill:#FFFFFF;}
	.st11{font-size:14px;}
	.st12{font-family:'Helvetica';}
	.st13{font-size:12px;}
</style>
<g id="viz" transform="translate(20,20)">
	<g id="nodes">
		<g transform="translate(383.5,281)">
			<path id="p_943.5" class="st0" d="M-119.2,271.27c-132.66,0-240.2-108.05-240.2-241.34S-251.86-211.4-119.2-211.4
				S121-103.35,121,29.94S13.46,271.27-119.2,271.27z"/>
		</g>
		<g id="_x33_9" transform="translate(337.30753126930455,263.3678111442737)">
			<path id="p_707.6810360888791" class="st1" d="M-112.64,125.46c-51.17,0-92.66-41.67-92.66-93.08s41.47-93.1,92.64-93.1
				c0.01,0,0.01,0,0.02,0c51.17,0,92.66,41.67,92.66,93.08c0,51.41-41.47,93.1-92.64,93.1
				C-112.62,125.46-112.63,125.46-112.64,125.46z"/>
		</g>
		<g id="_x33_6" transform="translate(551.0533020723391,263.3678111442737)">
			<path id="p_917.189627188595" class="st2" d="M-143.02,121.81c-49.16,0.01-89.02-40.03-89.03-89.43
				c-0.01-49.4,39.84-89.45,89-89.45c0.01,0,0.02,0,0.03,0C-93.86-57.07-54-17.04-53.99,32.36c0.01,49.4-39.84,89.45-89,89.45
				C-143,121.81-143.01,121.81-143.02,121.81z"/>
		</g>
		<g id="_x33_5" transform="translate(448.34682724941575,444.30753421132687)">
			<path id="p_993.971496066065" class="st3" d="M-128.42,95.58c-48.48,0-87.77-39.48-87.77-88.19s39.3-88.19,87.77-88.19
				s87.77,39.48,87.77,88.19S-79.94,95.58-128.42,95.58z"/>
		</g>
		<g id="_x31_8" transform="translate(447.77310246574314,117.02724381629622)">
			<path id="p_637.1757661852789" class="st4" d="M-128.34,115.82c-34.76,0-62.95-28.32-62.95-63.24s28.18-63.24,62.95-63.24
				s62.95,28.32,62.95,63.24S-93.57,115.82-128.34,115.82z"/>
		</g>
		<g id="_x31_6" transform="translate(306.42343989497425,86.89361869888106)">
			<path id="p_461.49606790851016" class="st5" d="M-108.25,116.37c-32.78,0.01-59.35-26.69-59.36-59.62s26.56-59.63,59.34-59.64
				c0.01,0,0.01,0,0.02,0C-75.47-2.89-48.9,23.8-48.89,56.73c0.01,32.93-26.56,59.63-59.34,59.64
				C-108.23,116.37-108.24,116.37-108.25,116.37z"/>
		</g>
	</g>
	<g id="labels">
		<g transform="translate(306.42343989497425,86.89361869888106)">
			<rect x="-153.74" y="23.92" class="st6" width="95.99" height="78.33"/>
			<text transform="matrix(0.9953 0 0 1 -153.74 30.1158)"><tspan x="0" y="0" class="st7 st8 st9">I was forced to spend </tspan><tspan x="0" y="10.34" class="st7 st8 st9">more money than I </tspan><tspan x="0" y="20.69" class="st7 st8 st9">wanted to keep my </tspan><tspan x="0" y="31.03" class="st7 st8 st9">membership active</tspan><tspan x="0" y="51.71" class="st7 st8 st9">16%</tspan></text>
			<rect x="-29.72" y="54.51" class="st6" width="83.83" height="78.33"/>
			<text transform="matrix(0.9953 0 0 1 -29.7214 60.6993)"><tspan x="0" y="0" class="st7 st8 st9">I got a different job</tspan><tspan x="0" y="20.69" class="st7 st8 st9">18%</tspan></text>
			<rect x="-149.79" y="169.12" class="st6" width="83.83" height="78.33"/>
			<text transform="matrix(0.9953 0 0 1 -149.7883 175.3112)"><tspan x="0" y="0" class="st10 st8 st9">I found it awkward </tspan><tspan x="0" y="10.34" class="st10 st8 st9">pitching to my </tspan><tspan x="0" y="20.69" class="st10 st8 st9">friends and relatives</tspan><tspan x="0" y="41.37" class="st10 st8 st9">39%</tspan></text>
			<rect x="47.44" y="162.51" class="st6" width="83.83" height="78.33"/>
			<text transform="matrix(0.9953 0 0 1 47.4397 168.6989)"><tspan x="0" y="0" class="st10 st8 st9">I didn’t make what I </tspan><tspan x="0" y="10.34" class="st10 st8 st9">expected to</tspan><tspan x="0" y="31.03" class="st10 st8 st9">36%</tspan></text>
			<rect x="-39.57" y="314.63" class="st6" width="83.83" height="78.33"/>
			<text transform="matrix(0.9953 0 0 1 -39.5671 320.8195)"><tspan x="0" y="0" class="st10 st8 st9">I didn’t like having </tspan><tspan x="0" y="10.34" class="st10 st8 st9">to sell all the time</tspan><tspan x="0" y="31.03" class="st10 st8 st9">35%</tspan></text>
		</g>
	</g>
	<rect x="-5.33" y="-4.64" class="st6" width="555.02" height="35.14"/>
	<text transform="matrix(1 0 0 1 -5.3336 5.4241)"><tspan x="0" y="0" class="st8 st11">Distributors often left the company because they didn’t like the aspect of selling to </tspan><tspan x="0" y="16.8" class="st8 st11">friends and family and didn’t make what they expected to</tspan></text>
	<rect x="-5.33" y="38.44" class="st6" width="555.02" height="45.88"/>
	<text transform="matrix(1 0 0 1 -5.3336 47.0669)"><tspan x="0" y="0" class="st12 st13">According to AARP, people employed by MLMs typically left their role for various reasons, besides </tspan><tspan x="0" y="14.4" class="st12 st13">finding other employment</tspan></text>
</g>
</svg>
