<?xml version="1.0" encoding="utf-8"?>
<!-- Generator: Adobe Illustrator 27.2.0, SVG Export Plug-In . SVG Version: 6.00 Build 0)  -->
<svg version="1.1" id="Layer_1" xmlns="http://www.w3.org/2000/svg" xmlns:xlink="http://www.w3.org/1999/xlink" x="0px" y="0px"
	 viewBox="0 0 504 504" style="enable-background:new 0 0 504 504;" xml:space="preserve">
<style type="text/css">
	.st0{font-family:'Helvetica-Bold';}
	.st1{font-size:16.5812px;}
	.st2{fill:#817A85;stroke:#FFFFFF;stroke-width:0.5;stroke-miterlimit:10;}
	.st3{fill:none;stroke:#FFFFFF;stroke-width:0.5;stroke-linecap:round;stroke-linejoin:round;stroke-miterlimit:10;}
	.st4{fill:#462C5C;stroke:#FFFFFF;stroke-width:0.5;stroke-miterlimit:10;}
	.st5{fill:#654675;stroke:#FFFFFF;stroke-width:0.5;stroke-miterlimit:10;}
	.st6{fill:#9D939A;stroke:#FFFFFF;stroke-width:0.5;stroke-miterlimit:10;}
	.st7{fill:none;}
	.st8{fill:#FFFFFF;}
	.st9{font-size:13.4055px;}
	.st10{fill:#DFDFDF;}
	.st11{font-family:'Helvetica';}
	.st12{font-size:12px;}
</style>
<text transform="matrix(0.9506 0 0 1 21.9444 30.6553)"><tspan x="0" y="0" class="st0 st1">Most MLM participants said their company did not accurately </tspan><tspan x="0" y="19.9" class="st0 st1">represent their chances at financial success.</tspan></text>
<rect x="21.94" y="306.44" class="st2" width="328.95" height="190.47"/>
<rect x="21.94" y="306.44" class="st3" width="328.95" height="190.47"/>
<rect x="350.89" y="98.66" class="st4" width="133.49" height="256.02"/>
<rect x="350.89" y="98.66" class="st3" width="133.49" height="256.02"/>
<rect x="21.94" y="98.66" class="st5" width="328.95" height="207.78"/>
<rect x="21.94" y="98.66" class="st3" width="328.95" height="207.78"/>
<rect x="350.89" y="354.68" class="st6" width="133.49" height="142.23"/>
<rect x="350.89" y="354.68" class="st3" width="133.49" height="142.23"/>
<rect x="29.36" y="110.02" class="st7" width="126.69" height="46.08"/>
<text transform="matrix(1.0153 0 0 1 29.3617 119.6558)"><tspan x="0" y="0" class="st8 st0 st9">Not too accurate</tspan><tspan x="0" y="16.09" class="st8 st0 st9">37%</tspan></text>
<rect x="29.36" y="316" class="st7" width="107" height="31.21"/>
<text transform="matrix(1.0153 0 0 1 29.3622 325.6279)"><tspan x="0" y="0" class="st10 st0 st9">Fairly accurate</tspan><tspan x="0" y="16.09" class="st10 st0 st9">34%</tspan></text>
<rect x="356.73" y="106.57" class="st7" width="123" height="52.99"/>
<text transform="matrix(1.0153 0 0 1 356.7318 116.2007)"><tspan x="0" y="0" class="st8 st0 st9">Not at all accurate</tspan><tspan x="0" y="16.09" class="st8 st0 st9">19%</tspan></text>
<rect x="23.11" y="63.24" class="st7" width="461.27" height="35.42"/>
<text transform="matrix(1 0 0 1 23.1108 71.8654)"><tspan x="0" y="0" class="st11 st12">52% of distributors surveyed said that their company’s portrayal of success was either </tspan><tspan x="0" y="14.4" class="st11 st12">“not too accurate” or “not at all accurate”</tspan></text>
<rect x="356.41" y="360.63" class="st7" width="107" height="31.21"/>
<text transform="matrix(1.0153 0 0 1 356.4126 370.2572)"><tspan x="0" y="0" class="st10 st0 st9">Very accurate </tspan><tspan x="0" y="16.09" class="st10 st0 st9">10%</tspan></text>
</svg>
