<?xml version="1.0" encoding="utf-8"?>
<!-- Generator: Adobe Illustrator 27.4.0, SVG Export Plug-In . SVG Version: 6.00 Build 0)  -->
<svg version="1.1" id="Layer_1" xmlns="http://www.w3.org/2000/svg" xmlns:xlink="http://www.w3.org/1999/xlink" x="0px" y="0px"
	 viewBox="0 0 504 504" style="enable-background:new 0 0 504 504;" xml:space="preserve">
<style type="text/css">
	.st0{font-family:'Helvetica-Bold';}
	.st1{font-size:14px;}
	.st2{fill:#E5F5E0;}
	.st3{fill:none;stroke:#000000;stroke-width:1.5;stroke-linecap:round;stroke-linejoin:round;stroke-miterlimit:10;}
	.st4{fill:#C7E9C0;}
	.st5{fill:#A1D99B;}
	.st6{fill:#74C476;}
	.st7{font-size:12.5303px;}
	.st8{fill:none;}
	.st9{font-family:'Helvetica';}
	.st10{font-size:12px;}
</style>
<text transform="matrix(1 0 0 1 8.8761 16.4136)"><tspan x="0" y="0" class="st0 st1">3 of the neighborhoods with the highest tree </tspan><tspan x="299.45" y="0" class="st0 st1">r</tspan><tspan x="304.76" y="0" class="st0 st1">ates per acre had relati</tspan><tspan x="457.28" y="0" class="st0 st1">v</tspan><tspan x="464.73" y="0" class="st0 st1">ely </tspan><tspan x="0" y="16.8" class="st0 st1">high incomes</tspan></text>
<rect x="268.12" y="59.99" class="st2" width="205.55" height="221"/>
<rect x="268.12" y="59.99" class="st3" width="205.55" height="221"/>
<rect x="21.33" y="302.23" class="st4" width="246.78" height="192.38"/>
<rect x="21.33" y="302.23" class="st3" width="246.78" height="192.38"/>
<rect x="21.33" y="59.99" class="st5" width="246.78" height="242.24"/>
<rect x="21.33" y="59.99" class="st3" width="246.78" height="242.24"/>
<rect x="268.12" y="280.99" class="st6" width="205.55" height="213.61"/>
<rect x="268.12" y="280.99" class="st3" width="205.55" height="213.61"/>
<text transform="matrix(1.0245 0 0 1 281.5371 164.9654)"><tspan x="0" y="0" class="st0 st7">B</tspan><tspan x="9.05" y="0" class="st0 st7">r</tspan><tspan x="13.68" y="0" class="st0 st7">ook</tspan><tspan x="35.95" y="0" class="st0 st7">l</tspan><tspan x="39.26" y="0" class="st0 st7">yn Heights−Cob</tspan><tspan x="134.98" y="0" class="st0 st7">b</tspan><tspan x="142.53" y="0" class="st0 st7">le Hill</tspan></text>
<text transform="matrix(1.0245 0 0 1 63.6528 376.045)" class="st0 st7">Central Harlem South</text>
<text transform="matrix(1.0245 0 0 1 55.9106 167.4839)" class="st0 st7">Upper East Side−Carnegie Hill</text>
<text transform="matrix(1.0245 0 0 1 317.455 355.3858)"><tspan x="0" y="0" class="st0 st7">Upper </tspan><tspan x="39.68" y="0" class="st0 st7">W</tspan><tspan x="51.08" y="0" class="st0 st7">est Side</tspan></text>
<rect x="56.89" y="175.65" class="st8" width="114.11" height="53.01"/>
<text transform="matrix(1.0206 0 0 1 56.8852 184.6602)"><tspan x="0" y="0" class="st9 st7">$302,939</tspan><tspan x="0" y="15.04" class="st9 st7">10.1 trees per acre</tspan></text>
<rect x="282.54" y="175.81" class="st8" width="114.11" height="53.01"/>
<text transform="matrix(1.0206 0 0 1 282.539 184.8174)"><tspan x="0" y="0" class="st9 st7">$178,252</tspan><tspan x="0" y="15.04" class="st9 st7">7.70 trees per acre</tspan></text>
<rect x="318.43" y="366.76" class="st8" width="114.11" height="53.01"/>
<text transform="matrix(1.0206 0 0 1 318.4297 375.7696)"><tspan x="0" y="0" class="st9 st7">$176,267</tspan><tspan x="0" y="15.04" class="st9 st7">7.54 trees per acre</tspan></text>
<rect x="64.23" y="387.8" class="st8" width="114.11" height="53.01"/>
<text transform="matrix(1.0206 0 0 1 64.2309 396.8067)"><tspan x="0" y="0" class="st9 st7">$87,914</tspan><tspan x="0" y="15.04" class="st9 st7">8.05 trees per acre</tspan></text>
<rect x="9" y="45" class="st8" width="477" height="31"/>
<text transform="matrix(1 0 0 1 9 53.6279)" class="st9 st10">Central Harlem is an exception to this rule, with the second highest tree rate per acre </text>
</svg>
