<?xml version="1.0" encoding="utf-8"?>
<!-- Generator: Adobe Illustrator 27.4.0, SVG Export Plug-In . SVG Version: 6.00 Build 0)  -->
<svg version="1.1" id="Layer_1" xmlns="http://www.w3.org/2000/svg" xmlns:xlink="http://www.w3.org/1999/xlink" x="0px" y="0px"
	 viewBox="0 0 504 504" style="enable-background:new 0 0 504 504;" xml:space="preserve">
<style type="text/css">
	.st0{font-family:'Helvetica-Bold';}
	.st1{font-size:13.6499px;}
	.st2{font-family:'Helvetica';}
	.st3{font-size:11px;}
	.st4{fill:#548F66;}
	.st5{fill:none;stroke:#000000;stroke-width:1.5;stroke-linecap:round;stroke-linejoin:round;stroke-miterlimit:10;}
	.st6{fill:#3A754E;}
	.st7{fill:#88C599;}
	.st8{fill:#BFFED0;}
	.st9{fill:#A3E1B4;}
	.st10{fill:#014421;}
	.st11{fill:#DBFFEC;}
	.st12{fill:#F8FFFF;}
	.st13{fill:#205C37;}
	.st14{fill:#6DAA7F;}
	.st15{fill:#FFFFFF;}
	.st16{font-size:10.0976px;}
	.st17{font-size:6.4258px;}
	.st18{font-size:7.3437px;}
	.st19{font-size:4.5898px;}
</style>
<text transform="matrix(0.9995 0 0 1 8.3955 18.4746)"><tspan x="0" y="0" class="st0 st1">Several of the NYC neighborhoods with the lowest tree per acre ration are </tspan><tspan x="0" y="16.86" class="st0 st1">located in Brooklyn</tspan><tspan x="0" y="33.72" class="st2 st3">Seagate and Gravesend have less than 2 trees per acre while Rosedale, Queens has almost 13 </tspan><tspan x="0" y="66.48" class="st2 st1">  </tspan></text>
<rect x="347.14" y="63.87" class="st4" width="123.4" height="215.33"/>
<rect x="347.14" y="63.87" class="st5" width="123.4" height="215.33"/>
<rect x="218.17" y="63.87" class="st6" width="128.97" height="215.33"/>
<rect x="218.17" y="63.87" class="st5" width="128.97" height="215.33"/>
<rect x="218.17" y="448.98" class="st7" width="151.27" height="44.71"/>
<rect x="218.17" y="448.98" class="st5" width="151.27" height="44.71"/>
<rect x="369.45" y="340.34" class="st8" width="101.09" height="58.83"/>
<rect x="369.45" y="340.34" class="st5" width="101.09" height="58.83"/>
<rect x="369.45" y="279.21" class="st9" width="101.09" height="61.14"/>
<rect x="369.45" y="279.21" class="st5" width="101.09" height="61.14"/>
<rect x="33.46" y="63.88" class="st10" width="184.72" height="240.52"/>
<rect x="33.46" y="63.88" class="st5" width="184.72" height="240.52"/>
<rect x="369.45" y="399.18" class="st11" width="59.65" height="94.51"/>
<rect x="369.45" y="399.18" class="st5" width="59.65" height="94.51"/>
<rect x="429.09" y="399.18" class="st12" width="41.45" height="94.51"/>
<rect x="429.09" y="399.18" class="st5" width="41.45" height="94.51"/>
<rect x="33.46" y="304.39" class="st13" width="184.72" height="189.3"/>
<rect x="33.46" y="304.39" class="st5" width="184.72" height="189.3"/>
<rect x="218.17" y="279.2" class="st14" width="151.27" height="169.78"/>
<rect x="218.17" y="279.2" class="st5" width="151.27" height="169.78"/>
<text transform="matrix(1.001 0 0 1 387.1172 160.625)"><tspan x="0" y="0" class="st15 st0 st16">B</tspan><tspan x="7.29" y="0" class="st15 st0 st16">r</tspan><tspan x="11.02" y="0" class="st15 st0 st16">ook</tspan><tspan x="28.97" y="0" class="st15 st0 st16">l</tspan><tspan x="31.64" y="0" class="st15 st0 st16">yn</tspan></text>
<text transform="matrix(1.001 0 0 1 370.2822 175.1656)"><tspan x="0" y="0" class="st15 st0 st16">Heights−Cob</tspan><tspan x="62.55" y="0" class="st15 st0 st16">b</tspan><tspan x="68.63" y="0" class="st15 st0 st16">le</tspan></text>
<text transform="matrix(1.001 0 0 1 400.9746 189.7061)" class="st15 st0 st16">Hill</text>
<text transform="matrix(1.001 0 0 1 230.9843 175.1656)" class="st15 st0 st16">Central Harlem South</text>
<text transform="matrix(1.001 0 0 1 267.7685 474.9644)"><tspan x="0" y="0" class="st0 st16">Gr</tspan><tspan x="11.78" y="0" class="st0 st16">a</tspan><tspan x="17.25" y="0" class="st0 st16">vesend</tspan></text>
<text transform="matrix(1.001 0 0 1 376.2099 366.1119)"><tspan x="0" y="0" class="st0 st16">Midt</tspan><tspan x="20.75" y="0" class="st0 st16">o</tspan><tspan x="26.77" y="0" class="st0 st16">wn−Midt</tspan><tspan x="67.44" y="0" class="st0 st16">o</tspan><tspan x="73.47" y="0" class="st0 st16">wn</tspan></text>
<text transform="matrix(1.001 0 0 1 405.6797 380.6519)" class="st0 st16">South</text>
<text transform="matrix(1.001 0 0 1 411.3584 307.188)"><tspan x="0" y="0" class="st0 st17">No</tspan><tspan x="8.57" y="0" class="st0 st17">r</tspan><tspan x="11.19" y="0" class="st0 st17">th</tspan></text>
<text transform="matrix(1.001 0 0 1 373.1123 316.9732)"><tspan x="0" y="0" class="st0 st17">Rive</tspan><tspan x="13.57" y="0" class="st0 st17">r</tspan><tspan x="15.95" y="0" class="st0 st17">dale−Fieldston−Rive</tspan><tspan x="78.44" y="0" class="st0 st17">r</tspan><tspan x="80.81" y="0" class="st0 st17">dale</tspan></text>
<text transform="matrix(1.001 0 0 1 103.3476 187.7603)" class="st15 st0 st16">Rosedale</text>
<text transform="matrix(1.001 0 0 1 371.8906 443.5972)"><tspan x="0" y="0" class="st0 st18">Se</tspan><tspan x="8.98" y="0" class="st0 st18">a</tspan><tspan x="12.99" y="0" class="st0 st18">gate−Con</tspan><tspan x="46.66" y="0" class="st0 st18">e</tspan><tspan x="50.63" y="0" class="st0 st18">y</tspan></text>
<text transform="matrix(1.001 0 0 1 388.6513 454.5484)" class="st0 st18">Island</text>
<text transform="matrix(1.001 0 0 1 445.0263 437.732)"><tspan x="0" y="0" class="st0 st19">T</tspan><tspan x="2.44" y="0" class="st0 st19">odt</tspan></text>
<text transform="matrix(1.001 0 0 1 435.1025 444.6343)"><tspan x="0" y="0" class="st0 st19">Hill−Eme</tspan><tspan x="19.52" y="0" class="st0 st19">r</tspan><tspan x="21.23" y="0" class="st0 st19">son</tspan></text>
<text transform="matrix(1.001 0 0 1 53.2119 402.6656)" class="st15 st0 st16">Upper East Side−Carnegie Hill</text>
<text transform="matrix(1.001 0 0 1 253.8291 367.7183)"><tspan x="0" y="0" class="st15 st0 st16">Upper </tspan><tspan x="31.98" y="0" class="st15 st0 st16">W</tspan><tspan x="41.17" y="0" class="st15 st0 st16">est Side</tspan></text>
</svg>
