<?xml version="1.0" encoding="utf-8"?>
<!-- Generator: Adobe Illustrator 27.4.0, SVG Export Plug-In . SVG Version: 6.00 Build 0)  -->
<svg version="1.1" id="Layer_1" xmlns="http://www.w3.org/2000/svg" xmlns:xlink="http://www.w3.org/1999/xlink" x="0px" y="0px"
	 viewBox="0 0 504 504" style="enable-background:new 0 0 504 504;" xml:space="preserve">
<style type="text/css">
	.st0{font-family:'Helvetica-Bold';}
	.st1{font-size:14.2192px;}
	.st2{fill:#F7FCF5;}
	.st3{fill:none;stroke:#000000;stroke-width:1.5;stroke-linecap:round;stroke-linejoin:round;stroke-miterlimit:10;}
	.st4{fill:#E5F5E0;}
	.st5{fill:#C7E9C0;}
	.st6{fill:#A1D99B;}
	.st7{font-size:13px;}
	.st8{letter-spacing:-1;}
	.st9{fill:none;}
	.st10{font-family:'Helvetica';}
	.st11{font-size:12px;}
</style>
<text transform="matrix(0.8221 0 0 1 25.0898 20.0981)"><tspan x="0" y="0" class="st0 st1">Neighborhoods with the l</tspan><tspan x="170.62" y="0" class="st0 st1">o</tspan><tspan x="179.09" y="0" class="st0 st1">w</tspan><tspan x="190.01" y="0" class="st0 st1">est median incomes also had relati</tspan><tspan x="425.5" y="0" class="st0 st1">v</tspan><tspan x="433.07" y="0" class="st0 st1">ely l</tspan><tspan x="460.73" y="0" class="st0 st1">o</tspan><tspan x="469.21" y="0" class="st0 st1">w tree </tspan><tspan x="514.25" y="0" class="st0 st1">r</tspan><tspan x="519.64" y="0" class="st0 st1">ates </tspan><tspan x="0" y="17.06" class="st0 st1">per acre</tspan></text>
<rect x="319.59" y="48" class="st2" width="159.32" height="282.05"/>
<rect x="319.59" y="48" class="st3" width="159.32" height="282.05"/>
<rect x="25.09" y="295.1" class="st4" width="294.5" height="197.81"/>
<rect x="25.09" y="295.1" class="st3" width="294.5" height="197.81"/>
<rect x="25.09" y="48" class="st5" width="294.5" height="247.1"/>
<rect x="25.09" y="48" class="st3" width="294.5" height="247.1"/>
<rect x="319.59" y="330.05" class="st6" width="159.32" height="162.86"/>
<rect x="319.59" y="330.05" class="st3" width="159.32" height="162.86"/>
<text transform="matrix(1.0041 0 0 1 336.7648 189.0233)" class="st0 st7">Claremont−Bathgate</text>
<text transform="matrix(1 0 0 1 134 387.3574)"><tspan x="0" y="0" class="st0 st7">East </tspan><tspan x="31.07" y="0" class="st0 st7 st8">T</tspan><tspan x="37.99" y="0" class="st0 st7">remont</tspan></text>
<text transform="matrix(1.0041 0 0 1 115.0993 137.7095)"><tspan x="0" y="0" class="st0 st7">Fo</tspan><tspan x="15.88" y="0" class="st0 st7">r</tspan><tspan x="20.68" y="0" class="st0 st7">dham South</tspan></text>
<text transform="matrix(1 0 0 1 326.7451 396.7695)"><tspan x="0" y="0" class="st0 st7">Mott H</tspan><tspan x="40.43" y="0" class="st0 st7">a</tspan><tspan x="47.46" y="0" class="st0 st7">ven−</tspan><tspan x="77.46" y="0" class="st0 st7">P</tspan><tspan x="85.61" y="0" class="st0 st7">o</tspan><tspan x="93.55" y="0" class="st0 st7">r</tspan><tspan x="98.85" y="0" class="st0 st7">t Morris</tspan></text>
<rect x="114" y="149.58" class="st9" width="138" height="36.75"/>
<text transform="matrix(1 0 0 1 114 158.2061)"><tspan x="0" y="0" class="st10 st11">$37,885</tspan><tspan x="0" y="14.4" class="st10 st11">7.32 trees per acre</tspan></text>
<rect x="337.35" y="200.5" class="st9" width="117.65" height="46.5"/>
<text transform="matrix(1 0 0 1 337.3517 209.1279)"><tspan x="0" y="0" class="st10 st11">$30,997</tspan><tspan x="0" y="14.4" class="st10 st11">4.52 trees per acre</tspan></text>
<rect x="327.71" y="407" class="st9" width="127.29" height="41"/>
<text transform="matrix(1 0 0 1 327.707 415.6279)"><tspan x="0" y="0" class="st10 st11">$33,368</tspan><tspan x="0" y="14.4" class="st10 st11">2.61 trees per acre</tspan></text>
<rect x="134" y="397.98" class="st9" width="133" height="72.02"/>
<text transform="matrix(1 0 0 1 134 406.6067)"><tspan x="0" y="0" class="st10 st11">$34,080</tspan><tspan x="0" y="14.4" class="st10 st11">5.86 trees per acre</tspan></text>
</svg>
